<svg width="19" height="12" viewBox="0 0 19 12" fill="none" xmlns="http://www.w3.org/2000/svg">
<path d="M1.776 4.51201V5.24521e-06H6.276V1.20001H2.34V1.57201H2.544C3.036 1.58401 3.252 1.87201 3.252 2.31601V4.41601C3.252 5.26801 2.688 5.82001 1.632 5.82001V6.18001C2.688 6.18001 3.252 6.73201 3.252 7.58401V9.68401C3.252 10.128 3.036 10.416 2.544 10.428H2.34V10.8H6.276V12H1.776V7.48801C1.776 6.91201 1.404 6.57601 0.9 6.57601H0V5.42401H0.9C1.404 5.42401 1.776 5.08801 1.776 4.51201Z" fill="white"/>
<path d="M6.00936 3.00202C6.00936 1.51402 6.84937 0.650016 8.37337 0.650016H10.6174V1.86202H8.70937C7.92937 1.86202 7.52136 2.27002 7.52136 3.02602V3.61402H10.6174V4.82602H6.59736V5.18602H6.81336C7.29336 5.19802 7.52136 5.49802 7.52136 5.93002V10.01H6.00936V4.82602H4.28136V3.61402H6.00936V3.00202Z" fill="white"/>
<path d="M10.2581 10.166C8.93812 10.166 8.07412 9.31402 8.07412 8.13802C8.07412 7.25002 8.35012 6.62602 9.10612 6.02602L9.40612 5.78602C9.97012 5.35402 10.4021 5.19802 11.1341 5.19802H11.9741V4.82602H8.14612V3.61402H14.4101V10.01H12.8861V8.24602H12.5741C12.4181 9.51802 11.4701 10.166 10.2581 10.166ZM11.0021 8.99002C12.1181 8.99002 12.8861 8.04202 12.8861 6.25402V4.80202L10.6901 6.31402C9.97012 6.81802 9.68212 7.23802 9.68212 7.77802C9.68212 8.53402 10.2221 8.99002 11.0021 8.99002Z" fill="white"/>
<path d="M17.0741 7.488V12H12.5741V10.8H16.5101V10.428H16.3061C15.8141 10.416 15.5981 10.128 15.5981 9.684V7.584C15.5981 6.732 16.1621 6.18 17.2181 6.18V5.82C16.1621 5.82 15.5981 5.268 15.5981 4.416V2.316C15.5981 1.872 15.8141 1.584 16.3061 1.572H16.5101V1.2H12.5741V-8.34465e-07H17.0741V4.512C17.0741 5.088 17.4461 5.424 17.9501 5.424H18.8501V6.576H17.9501C17.4461 6.576 17.0741 6.912 17.0741 7.488Z" fill="white"/>
</svg>
